# Blender v2.82 (sub 7) OBJ File: ''
# www.blender.org
mtllib cone3.mtl
o Cone
v 0.000000 1.000000 -1.000000
v 0.000000 0.000000 0.000000
v 0.195090 0.980785 -1.000000
v 0.382683 0.923880 -1.000000
v 0.555570 0.831470 -1.000000
v 0.707107 0.707107 -1.000000
v 0.831470 0.555570 -1.000000
v 0.923880 0.382683 -1.000000
v 0.980785 0.195090 -1.000000
v 1.000000 0.000000 -1.000000
v 0.980785 -0.195090 -1.000000
v 0.923880 -0.382683 -1.000000
v 0.831470 -0.555570 -1.000000
v 0.707107 -0.707107 -1.000000
v 0.555570 -0.831470 -1.000000
v 0.382683 -0.923880 -1.000000
v 0.195090 -0.980785 -1.000000
v 0.000000 -1.000000 -1.000000
v -0.195091 -0.980785 -1.000000
v -0.382684 -0.923879 -1.000000
v -0.555571 -0.831469 -1.000000
v -0.707107 -0.707106 -1.000000
v -0.831470 -0.555570 -1.000000
v -0.923880 -0.382683 -1.000000
v -0.980785 -0.195089 -1.000000
v -1.000000 0.000001 -1.000000
v -0.980785 0.195091 -1.000000
v -0.923879 0.382684 -1.000000
v -0.831469 0.555571 -1.000000
v -0.707106 0.707108 -1.000000
v -0.555569 0.831470 -1.000000
v -0.382682 0.923880 -1.000000
v -0.195089 0.980786 -1.000000
v 0.000000 0.000001 -0.999793
vt 0.250000 0.490000
vt 0.250000 0.250000
vt 0.296822 0.485388
vt 0.341844 0.471731
vt 0.383337 0.449553
vt 0.419706 0.419706
vt 0.449553 0.383337
vt 0.471731 0.341844
vt 0.485388 0.296822
vt 0.490000 0.250000
vt 0.485388 0.203178
vt 0.471731 0.158156
vt 0.449553 0.116663
vt 0.419706 0.080294
vt 0.383337 0.050447
vt 0.341844 0.028269
vt 0.296822 0.014612
vt 0.250000 0.010000
vt 0.203178 0.014612
vt 0.158156 0.028269
vt 0.116663 0.050447
vt 0.080294 0.080294
vt 0.050447 0.116663
vt 0.028269 0.158156
vt 0.014611 0.203179
vt 0.010000 0.250000
vt 0.014612 0.296822
vt 0.028269 0.341844
vt 0.050447 0.383337
vt 0.080295 0.419706
vt 0.116663 0.449553
vt 0.158156 0.471731
vt 0.203179 0.485389
vt 0.383337 0.449553
vt 0.471731 0.158156
vt 0.014611 0.203179
vt 0.203178 0.014612
vt 0.158156 0.471731
vt 0.419706 0.419706
vt 0.203179 0.485389
vt 0.449553 0.116663
vt 0.010000 0.250000
vt 0.158156 0.028269
vt 0.449553 0.383337
vt 0.419706 0.080294
vt 0.014612 0.296822
vt 0.116663 0.050447
vt 0.471731 0.341844
vt 0.250000 0.490000
vt 0.383337 0.050447
vt 0.028269 0.341844
vt 0.080294 0.080294
vt 0.485388 0.296822
vt 0.341844 0.028269
vt 0.050447 0.383337
vt 0.050447 0.116663
vt 0.296822 0.485388
vt 0.490000 0.250000
vt 0.296822 0.014612
vt 0.080295 0.419706
vt 0.341844 0.471731
vt 0.485388 0.203178
vt 0.028269 0.158156
vt 0.250000 0.010000
vt 0.116663 0.449553
vn 0.0695 0.7054 0.7054
vn 0.2058 0.6783 0.7054
vn 0.3341 0.6251 0.7054
vn 0.4497 0.5479 0.7054
vn 0.5479 0.4497 0.7054
vn 0.6251 0.3341 0.7054
vn 0.6783 0.2058 0.7054
vn 0.7054 0.0695 0.7054
vn 0.7054 -0.0695 0.7054
vn 0.6783 -0.2058 0.7054
vn 0.6251 -0.3341 0.7054
vn 0.5479 -0.4497 0.7054
vn 0.4497 -0.5479 0.7054
vn 0.3341 -0.6251 0.7054
vn 0.2058 -0.6783 0.7054
vn 0.0695 -0.7054 0.7054
vn -0.0695 -0.7054 0.7054
vn -0.2058 -0.6783 0.7054
vn -0.3341 -0.6251 0.7054
vn -0.4497 -0.5479 0.7054
vn -0.5479 -0.4497 0.7054
vn -0.6251 -0.3341 0.7054
vn -0.6783 -0.2058 0.7054
vn -0.7054 -0.0695 0.7054
vn -0.7054 0.0695 0.7054
vn -0.6783 0.2058 0.7054
vn -0.6251 0.3341 0.7054
vn -0.5479 0.4497 0.7054
vn -0.4497 0.5479 0.7054
vn -0.3341 0.6251 0.7054
vn -0.2058 0.6783 0.7054
vn -0.0695 0.7054 0.7054
vn -0.0001 -0.0002 -1.0000
vn -0.0002 0.0001 -1.0000
vn 0.0002 0.0000 -1.0000
vn 0.0001 0.0002 -1.0000
vn 0.0001 -0.0002 -1.0000
vn -0.0002 -0.0001 -1.0000
vn 0.0000 -0.0002 -1.0000
vn -0.0001 0.0002 -1.0000
vn 0.0002 -0.0001 -1.0000
vn 0.0002 0.0001 -1.0000
vn -0.0002 -0.0000 -1.0000
vn -0.0000 0.0002 -1.0000
usemtl None
s 1
f 1/1/1 2/2/1 3/3/1
f 3/3/2 2/2/2 4/4/2
f 4/4/3 2/2/3 5/5/3
f 5/5/4 2/2/4 6/6/4
f 6/6/5 2/2/5 7/7/5
f 7/7/6 2/2/6 8/8/6
f 8/8/7 2/2/7 9/9/7
f 9/9/8 2/2/8 10/10/8
f 10/10/9 2/2/9 11/11/9
f 11/11/10 2/2/10 12/12/10
f 12/12/11 2/2/11 13/13/11
f 13/13/12 2/2/12 14/14/12
f 14/14/13 2/2/13 15/15/13
f 15/15/14 2/2/14 16/16/14
f 16/16/15 2/2/15 17/17/15
f 17/17/16 2/2/16 18/18/16
f 18/18/17 2/2/17 19/19/17
f 19/19/18 2/2/18 20/20/18
f 20/20/19 2/2/19 21/21/19
f 21/21/20 2/2/20 22/22/20
f 22/22/21 2/2/21 23/23/21
f 23/23/22 2/2/22 24/24/22
f 24/24/23 2/2/23 25/25/23
f 25/25/24 2/2/24 26/26/24
f 26/26/25 2/2/25 27/27/25
f 27/27/26 2/2/26 28/28/26
f 28/28/27 2/2/27 29/29/27
f 29/29/28 2/2/28 30/30/28
f 30/30/29 2/2/29 31/31/29
f 31/31/30 2/2/30 32/32/30
f 32/32/31 2/2/31 33/33/31
f 33/33/32 2/2/32 1/1/32
f 5/5/33 6/6/33 34/34/33
f 12/12/34 13/13/34 34/35/34
f 25/25/35 26/26/35 34/36/35
f 19/19/36 20/20/36 34/37/36
f 32/32/37 33/33/37 34/38/37
f 6/6/38 7/7/38 34/39/38
f 33/33/39 1/1/39 34/40/39
f 13/13/34 14/14/34 34/41/34
f 26/26/35 27/27/35 34/42/35
f 20/20/36 21/21/36 34/43/36
f 7/7/38 8/8/38 34/44/38
f 14/14/40 15/15/40 34/45/40
f 27/27/41 28/28/41 34/46/41
f 21/21/36 22/22/36 34/47/36
f 8/8/38 9/9/38 34/48/38
f 1/1/39 3/3/39 34/49/39
f 15/15/40 16/16/40 34/50/40
f 28/28/41 29/29/41 34/51/41
f 22/22/42 23/23/42 34/52/42
f 9/9/43 10/10/43 34/53/43
f 16/16/40 17/17/40 34/54/40
f 29/29/41 30/30/41 34/55/41
f 23/23/42 24/24/42 34/56/42
f 3/3/33 4/4/33 34/57/33
f 10/10/43 11/11/43 34/58/43
f 17/17/44 18/18/44 34/59/44
f 30/30/37 31/31/37 34/60/37
f 4/4/33 5/5/33 34/61/33
f 11/11/34 12/12/34 34/62/34
f 24/24/42 25/25/42 34/63/42
f 18/18/44 19/19/44 34/64/44
f 31/31/37 32/32/37 34/65/37
