# Blender v2.82 (sub 7) OBJ File: ''
# www.blender.org
mtllib sphere.mtl
o Sphere
v -0.000000 1.000000 -0.000000
v 0.181094 0.959493 -0.215820
v 0.347517 0.841254 -0.414155
v 0.485786 0.654861 -0.578938
v 0.584700 0.415415 -0.696819
v 0.636245 0.142315 -0.758247
v 0.636245 -0.142315 -0.758247
v 0.584700 -0.415415 -0.696819
v 0.485786 -0.654861 -0.578938
v 0.347517 -0.841254 -0.414155
v 0.181094 -0.959493 -0.215820
v 0.277452 0.959493 -0.048922
v 0.532427 0.841254 -0.093881
v 0.744268 0.654861 -0.131235
v 0.895812 0.415415 -0.157956
v 0.974784 0.142315 -0.171881
v 0.974784 -0.142315 -0.171881
v 0.895812 -0.415415 -0.157956
v 0.744268 -0.654861 -0.131235
v 0.532427 -0.841254 -0.093881
v 0.277452 -0.959493 -0.048922
v 0.243987 0.959493 0.140866
v 0.468209 0.841254 0.270320
v 0.654498 0.654861 0.377874
v 0.787764 0.415415 0.454816
v 0.857210 0.142315 0.494910
v 0.857210 -0.142315 0.494910
v 0.787764 -0.415415 0.454816
v 0.654498 -0.654861 0.377874
v 0.468208 -0.841254 0.270320
v 0.243987 -0.959493 0.140866
v 0.096358 0.959493 0.264742
v 0.184910 0.841254 0.508036
v 0.258482 0.654861 0.710172
v 0.311112 0.415415 0.854774
v 0.338539 0.142315 0.930127
v 0.338539 -0.142315 0.930127
v 0.311112 -0.415415 0.854774
v 0.258482 -0.654861 0.710172
v 0.184910 -0.841254 0.508036
v 0.096358 -0.959493 0.264742
v -0.096358 0.959493 0.264742
v -0.184910 0.841254 0.508036
v -0.258481 0.654861 0.710172
v -0.311112 0.415415 0.854774
v -0.338539 0.142315 0.930127
v -0.338539 -0.142315 0.930127
v -0.311112 -0.415415 0.854774
v -0.258481 -0.654861 0.710172
v -0.184910 -0.841254 0.508036
v -0.096358 -0.959493 0.264742
v -0.243987 0.959493 0.140866
v -0.468208 0.841254 0.270320
v -0.654498 0.654861 0.377875
v -0.787764 0.415415 0.454816
v -0.857210 0.142315 0.494911
v -0.857210 -0.142315 0.494911
v -0.787764 -0.415415 0.454816
v -0.654498 -0.654861 0.377874
v -0.468208 -0.841254 0.270320
v -0.243987 -0.959493 0.140866
v -0.277452 0.959493 -0.048922
v -0.532427 0.841254 -0.093881
v -0.744268 0.654861 -0.131235
v -0.895812 0.415415 -0.157956
v -0.974783 0.142315 -0.171881
v -0.974783 -0.142315 -0.171881
v -0.895812 -0.415415 -0.157956
v -0.744268 -0.654861 -0.131235
v -0.532427 -0.841254 -0.093881
v -0.277452 -0.959493 -0.048922
v 0.000000 -1.000000 -0.000000
v -0.181094 0.959493 -0.215820
v -0.347517 0.841254 -0.414155
v -0.485786 0.654861 -0.578938
v -0.584700 0.415415 -0.696818
v -0.636245 0.142315 -0.758247
v -0.636245 -0.142315 -0.758247
v -0.584700 -0.415415 -0.696818
v -0.485786 -0.654861 -0.578937
v -0.347517 -0.841254 -0.414155
v -0.181094 -0.959493 -0.215820
v -0.000000 0.959493 -0.281732
v -0.000000 0.841254 -0.540641
v -0.000000 0.654861 -0.755749
v -0.000000 0.415415 -0.909632
v -0.000000 0.142315 -0.989821
v -0.000000 -0.142315 -0.989821
v -0.000000 -0.415415 -0.909632
v -0.000000 -0.654861 -0.755749
v -0.000000 -0.841254 -0.540641
v -0.000000 -0.959493 -0.281733
vt 0.666667 0.272727
vt 0.555556 0.181818
vt 0.666667 0.181818
vt 0.666667 0.545455
vt 0.555556 0.454545
vt 0.666667 0.454545
vt 0.666667 0.727273
vt 0.555556 0.818182
vt 0.555556 0.727273
vt 0.555556 0.090909
vt 0.666667 0.090909
vt 0.555556 0.363636
vt 0.666667 0.363636
vt 0.555556 0.636364
vt 0.666667 0.636364
vt 0.611111 0.000000
vt 0.666667 0.909091
vt 0.611111 1.000000
vt 0.555556 0.909091
vt 0.555556 0.272727
vt 0.555556 0.545455
vt 0.666667 0.818182
vt 0.444445 0.545455
vt 0.444445 0.818182
vt 0.444445 0.181818
vt 0.444445 0.454545
vt 0.444445 0.727273
vt 0.444445 0.090909
vt 0.444445 0.363636
vt 0.444445 0.636364
vt 0.500000 0.000000
vt 0.500000 1.000000
vt 0.444445 0.909091
vt 0.444445 0.272727
vt 0.333333 0.272727
vt 0.333333 0.181818
vt 0.333333 0.454545
vt 0.333333 0.727273
vt 0.333333 0.090909
vt 0.333333 0.363636
vt 0.333333 0.636364
vt 0.388889 0.000000
vt 0.388889 1.000000
vt 0.333333 0.909091
vt 0.333333 0.545455
vt 0.333333 0.818182
vt 0.222222 0.818182
vt 0.222222 0.727273
vt 0.222222 0.090909
vt 0.222222 0.363636
vt 0.222222 0.636364
vt 0.277778 0.000000
vt 0.277778 1.000000
vt 0.222222 0.909091
vt 0.222222 0.272727
vt 0.222222 0.545455
vt 0.222222 0.181818
vt 0.222222 0.454545
vt 0.111111 0.727273
vt 0.111111 0.636364
vt 0.166667 0.000000
vt 0.111111 0.090909
vt 0.166667 1.000000
vt 0.111111 0.909091
vt 0.111111 0.272727
vt 0.111111 0.545455
vt 0.111111 0.818182
vt 0.111111 0.181818
vt 0.111111 0.454545
vt 0.111111 0.363636
vt 0.000000 0.363636
vt 0.000000 0.272727
vt 0.000000 0.636364
vt 0.000000 0.545455
vt 0.000000 0.818182
vt 0.000000 0.181818
vt 0.000000 0.454545
vt 0.000000 0.727273
vt 0.000000 0.090909
vt 0.055556 0.000000
vt 0.055556 1.000000
vt 0.000000 0.909091
vt 1.000000 0.909091
vt 0.888889 0.818182
vt 1.000000 0.818182
vt 1.000000 0.272727
vt 0.888889 0.181818
vt 1.000000 0.181818
vt 1.000000 0.545455
vt 0.888889 0.454545
vt 1.000000 0.454545
vt 0.888889 0.727273
vt 1.000000 0.727273
vt 1.000000 0.090909
vt 0.888889 0.090909
vt 0.888889 0.363636
vt 1.000000 0.363636
vt 0.888889 0.636364
vt 1.000000 0.636364
vt 0.944444 0.000000
vt 0.944444 1.000000
vt 0.888889 0.909091
vt 0.888889 0.272727
vt 0.888889 0.545455
vt 0.777778 0.727273
vt 0.777778 0.181818
vt 0.777778 0.090909
vt 0.777778 0.363636
vt 0.777778 0.636364
vt 0.833333 0.000000
vt 0.833333 1.000000
vt 0.777778 0.909091
vt 0.777778 0.272727
vt 0.777778 0.545455
vt 0.777778 0.818182
vt 0.777778 0.454545
vt 0.722222 0.000000
vt 0.722222 1.000000
vn 0.2319 -0.7352 -0.6370
vn 0.3420 0.0000 -0.9397
vn 0.2319 0.7352 -0.6370
vn 0.1495 -0.8994 -0.4107
vn 0.3297 -0.2660 -0.9058
vn 0.2928 0.5170 -0.8044
vn 0.0517 -0.9885 -0.1421
vn 0.0517 0.9885 -0.1421
vn 0.2928 -0.5170 -0.8044
vn 0.3297 0.2660 -0.9058
vn 0.1495 0.8994 -0.4107
vn 0.8348 0.2660 -0.4820
vn 0.3785 0.8994 -0.2186
vn 0.5871 -0.7352 -0.3389
vn 0.8660 0.0000 -0.5000
vn 0.5871 0.7352 -0.3389
vn 0.3785 -0.8994 -0.2186
vn 0.8348 -0.2660 -0.4820
vn 0.7413 0.5170 -0.4280
vn 0.1310 -0.9885 -0.0756
vn 0.1310 0.9885 -0.0756
vn 0.7413 -0.5170 -0.4280
vn 0.6676 -0.7352 0.1177
vn 0.9848 0.0000 0.1736
vn 0.6676 0.7352 0.1177
vn 0.4305 -0.8994 0.0759
vn 0.9493 -0.2660 0.1674
vn 0.8430 0.5170 0.1486
vn 0.1489 -0.9885 0.0263
vn 0.1489 0.9885 0.0263
vn 0.8430 -0.5170 0.1486
vn 0.9493 0.2660 0.1674
vn 0.4305 0.8994 0.0759
vn 0.4357 0.7352 0.5193
vn 0.2810 -0.8994 0.3348
vn 0.6196 -0.2660 0.7385
vn 0.5502 0.5170 0.6557
vn 0.0972 -0.9885 0.1159
vn 0.0972 0.9885 0.1159
vn 0.5502 -0.5170 0.6557
vn 0.6196 0.2660 0.7385
vn 0.2810 0.8994 0.3348
vn 0.4357 -0.7352 0.5193
vn 0.6428 0.0000 0.7660
vn 0.0000 0.5170 0.8560
vn 0.0000 -0.9885 0.1512
vn 0.0000 0.9885 0.1512
vn 0.0000 -0.5170 0.8560
vn 0.0000 0.2660 0.9640
vn 0.0000 0.8994 0.4371
vn 0.0000 -0.7352 0.6779
vn 0.0000 0.0000 1.0000
vn 0.0000 0.7352 0.6779
vn 0.0000 -0.8994 0.4371
vn 0.0000 -0.2660 0.9640
vn -0.5502 -0.5170 0.6557
vn -0.6196 0.2660 0.7385
vn -0.2810 0.8994 0.3348
vn -0.4357 -0.7352 0.5193
vn -0.6428 0.0000 0.7660
vn -0.4357 0.7352 0.5193
vn -0.2810 -0.8994 0.3348
vn -0.6196 -0.2660 0.7385
vn -0.5502 0.5170 0.6557
vn -0.0972 -0.9885 0.1159
vn -0.0972 0.9885 0.1159
vn -0.4305 0.8994 0.0759
vn -0.6676 -0.7352 0.1177
vn -0.9848 0.0000 0.1736
vn -0.6676 0.7352 0.1177
vn -0.4305 -0.8994 0.0759
vn -0.9493 -0.2660 0.1674
vn -0.8430 0.5170 0.1486
vn -0.1489 -0.9885 0.0263
vn -0.1489 0.9885 0.0263
vn -0.8430 -0.5170 0.1486
vn -0.9493 0.2660 0.1674
vn -0.5871 0.7352 -0.3389
vn -0.3785 -0.8994 -0.2186
vn -0.8348 -0.2660 -0.4820
vn -0.7413 0.5170 -0.4280
vn -0.1310 -0.9885 -0.0756
vn -0.1310 0.9885 -0.0756
vn -0.7413 -0.5170 -0.4280
vn -0.8348 0.2660 -0.4820
vn -0.3785 0.8994 -0.2186
vn -0.5871 -0.7352 -0.3389
vn -0.8660 0.0000 -0.5000
vn -0.3297 -0.2660 -0.9058
vn -0.2928 0.5170 -0.8044
vn -0.0517 -0.9885 -0.1421
vn -0.0517 0.9885 -0.1421
vn -0.2928 -0.5170 -0.8044
vn -0.3297 0.2660 -0.9058
vn -0.1495 0.8994 -0.4107
vn -0.2319 -0.7352 -0.6370
vn -0.3420 0.0000 -0.9397
vn -0.2319 0.7352 -0.6370
vn -0.1495 -0.8994 -0.4107
usemtl None
s off
f 90/1/1 10/2/1 91/3/1
f 87/4/2 7/5/2 88/6/2
f 85/7/3 3/8/3 4/9/3
f 91/3/4 11/10/4 92/11/4
f 88/6/5 8/12/5 89/13/5
f 85/7/6 5/14/6 86/15/6
f 72/16/7 92/11/7 11/10/7
f 83/17/8 1/18/8 2/19/8
f 90/1/9 8/12/9 9/20/9
f 87/4/10 5/14/10 6/21/10
f 84/22/11 2/19/11 3/8/11
f 5/14/12 16/23/12 6/21/12
f 2/19/13 13/24/13 3/8/13
f 9/20/14 20/25/14 10/2/14
f 6/21/15 17/26/15 7/5/15
f 3/8/16 14/27/16 4/9/16
f 11/10/17 20/25/17 21/28/17
f 7/5/18 18/29/18 8/12/18
f 4/9/19 15/30/19 5/14/19
f 72/31/20 11/10/20 21/28/20
f 2/19/21 1/32/21 12/33/21
f 9/20/22 18/29/22 19/34/22
f 20/25/23 29/35/23 30/36/23
f 16/23/24 27/37/24 17/26/24
f 13/24/25 24/38/25 14/27/25
f 21/28/26 30/36/26 31/39/26
f 17/26/27 28/40/27 18/29/27
f 14/27/28 25/41/28 15/30/28
f 72/42/29 21/28/29 31/39/29
f 12/33/30 1/43/30 22/44/30
f 19/34/31 28/40/31 29/35/31
f 15/30/32 26/45/32 16/23/32
f 12/33/33 23/46/33 13/24/33
f 24/38/34 33/47/34 34/48/34
f 30/36/35 41/49/35 31/39/35
f 27/37/36 38/50/36 28/40/36
f 24/38/37 35/51/37 25/41/37
f 72/52/38 31/39/38 41/49/38
f 22/44/39 1/53/39 32/54/39
f 29/35/40 38/50/40 39/55/40
f 25/41/41 36/56/41 26/45/41
f 22/44/42 33/47/42 23/46/42
f 29/35/43 40/57/43 30/36/43
f 26/45/44 37/58/44 27/37/44
f 35/51/45 44/59/45 45/60/45
f 72/61/46 41/49/46 51/62/46
f 32/54/47 1/63/47 42/64/47
f 38/50/48 49/65/48 39/55/48
f 36/56/49 45/60/49 46/66/49
f 32/54/50 43/67/50 33/47/50
f 40/57/51 49/65/51 50/68/51
f 36/56/52 47/69/52 37/58/52
f 33/47/53 44/59/53 34/48/53
f 41/49/54 50/68/54 51/62/54
f 37/58/55 48/70/55 38/50/55
f 49/65/56 58/71/56 59/72/56
f 46/66/57 55/73/57 56/74/57
f 42/64/58 53/75/58 43/67/58
f 49/65/59 60/76/59 50/68/59
f 46/66/60 57/77/60 47/69/60
f 43/67/61 54/78/61 44/59/61
f 51/62/62 60/76/62 61/79/62
f 47/69/63 58/71/63 48/70/63
f 44/59/64 55/73/64 45/60/64
f 72/80/65 51/62/65 61/79/65
f 42/64/66 1/81/66 52/82/66
f 52/83/67 63/84/67 53/85/67
f 59/86/68 70/87/68 60/88/68
f 56/89/69 67/90/69 57/91/69
f 53/85/70 64/92/70 54/93/70
f 61/94/71 70/87/71 71/95/71
f 57/91/72 68/96/72 58/97/72
f 54/93/73 65/98/73 55/99/73
f 72/100/74 61/94/74 71/95/74
f 52/83/75 1/101/75 62/102/75
f 59/86/76 68/96/76 69/103/76
f 56/89/77 65/98/77 66/104/77
f 63/84/78 75/105/78 64/92/78
f 71/95/79 81/106/79 82/107/79
f 67/90/80 79/108/80 68/96/80
f 64/92/81 76/109/81 65/98/81
f 72/110/82 71/95/82 82/107/82
f 62/102/83 1/111/83 73/112/83
f 69/103/84 79/108/84 80/113/84
f 65/98/85 77/114/85 66/104/85
f 63/84/86 73/112/86 74/115/86
f 70/87/87 80/113/87 81/106/87
f 66/104/88 78/116/88 67/90/88
f 78/116/89 89/13/89 79/108/89
f 75/105/90 86/15/90 76/109/90
f 72/117/91 82/107/91 92/11/91
f 73/112/92 1/118/92 83/17/92
f 80/113/93 89/13/93 90/1/93
f 77/114/94 86/15/94 87/4/94
f 73/112/95 84/22/95 74/115/95
f 80/113/96 91/3/96 81/106/96
f 77/114/97 88/6/97 78/116/97
f 74/115/98 85/7/98 75/105/98
f 82/107/99 91/3/99 92/11/99
f 90/1/1 9/20/1 10/2/1
f 87/4/2 6/21/2 7/5/2
f 85/7/3 84/22/3 3/8/3
f 91/3/4 10/2/4 11/10/4
f 88/6/5 7/5/5 8/12/5
f 85/7/6 4/9/6 5/14/6
f 90/1/9 89/13/9 8/12/9
f 87/4/10 86/15/10 5/14/10
f 84/22/11 83/17/11 2/19/11
f 5/14/12 15/30/12 16/23/12
f 2/19/13 12/33/13 13/24/13
f 9/20/14 19/34/14 20/25/14
f 6/21/15 16/23/15 17/26/15
f 3/8/16 13/24/16 14/27/16
f 11/10/17 10/2/17 20/25/17
f 7/5/18 17/26/18 18/29/18
f 4/9/19 14/27/19 15/30/19
f 9/20/22 8/12/22 18/29/22
f 20/25/23 19/34/23 29/35/23
f 16/23/24 26/45/24 27/37/24
f 13/24/25 23/46/25 24/38/25
f 21/28/26 20/25/26 30/36/26
f 17/26/27 27/37/27 28/40/27
f 14/27/28 24/38/28 25/41/28
f 19/34/31 18/29/31 28/40/31
f 15/30/32 25/41/32 26/45/32
f 12/33/33 22/44/33 23/46/33
f 24/38/34 23/46/34 33/47/34
f 30/36/35 40/57/35 41/49/35
f 27/37/36 37/58/36 38/50/36
f 24/38/37 34/48/37 35/51/37
f 29/35/40 28/40/40 38/50/40
f 25/41/41 35/51/41 36/56/41
f 22/44/42 32/54/42 33/47/42
f 29/35/43 39/55/43 40/57/43
f 26/45/44 36/56/44 37/58/44
f 35/51/45 34/48/45 44/59/45
f 38/50/48 48/70/48 49/65/48
f 36/56/49 35/51/49 45/60/49
f 32/54/50 42/64/50 43/67/50
f 40/57/51 39/55/51 49/65/51
f 36/56/52 46/66/52 47/69/52
f 33/47/53 43/67/53 44/59/53
f 41/49/54 40/57/54 50/68/54
f 37/58/55 47/69/55 48/70/55
f 49/65/56 48/70/56 58/71/56
f 46/66/57 45/60/57 55/73/57
f 42/64/58 52/82/58 53/75/58
f 49/65/59 59/72/59 60/76/59
f 46/66/60 56/74/60 57/77/60
f 43/67/61 53/75/61 54/78/61
f 51/62/62 50/68/62 60/76/62
f 47/69/63 57/77/63 58/71/63
f 44/59/64 54/78/64 55/73/64
f 52/83/67 62/102/67 63/84/67
f 59/86/68 69/103/68 70/87/68
f 56/89/69 66/104/69 67/90/69
f 53/85/70 63/84/70 64/92/70
f 61/94/71 60/88/71 70/87/71
f 57/91/72 67/90/72 68/96/72
f 54/93/73 64/92/73 65/98/73
f 59/86/76 58/97/76 68/96/76
f 56/89/77 55/99/77 65/98/77
f 63/84/78 74/115/78 75/105/78
f 71/95/79 70/87/79 81/106/79
f 67/90/80 78/116/80 79/108/80
f 64/92/81 75/105/81 76/109/81
f 69/103/84 68/96/84 79/108/84
f 65/98/85 76/109/85 77/114/85
f 63/84/86 62/102/86 73/112/86
f 70/87/87 69/103/87 80/113/87
f 66/104/88 77/114/88 78/116/88
f 78/116/89 88/6/89 89/13/89
f 75/105/90 85/7/90 86/15/90
f 80/113/93 79/108/93 89/13/93
f 77/114/94 76/109/94 86/15/94
f 73/112/95 83/17/95 84/22/95
f 80/113/96 90/1/96 91/3/96
f 77/114/97 87/4/97 88/6/97
f 74/115/98 84/22/98 85/7/98
f 82/107/99 81/106/99 91/3/99
