{
    "asset" : {
        "generator" : "Khronos glTF Blender I/O v1.4.40",
        "version" : "2.0"
    },
    "scene" : 0,
    "scenes" : [
        {
            "name" : "Scene",
            "nodes" : [
                1,
                2,
                3
            ]
        }
    ],
    "nodes" : [
        {
            "mesh" : 0,
            "name" : "GEEC_Container",
            "translation" : [
                -0.016027450561523438,
                -0.029766082763671875,
                -0.002719879150390625
            ]
        },
        {
            "children" : [
                0
            ],
            "mesh" : 1,
            "name" : "ContainerCopy"
        },
        {
            "mesh" : 2,
            "name" : "ContainerCopyCopy",
            "translation" : [
                -25.32021141052246,
                2.711949110031128,
                16.934358596801758
            ]
        },
        {
            "mesh" : 3,
            "name" : "GEEC_Bowls"
        }
    ],
    "materials" : [
        {
            "doubleSided" : true,
            "name" : "ShippingContainer",
            "normalTexture" : {
                "index" : 0,
                "texCoord" : 0
            },
            "pbrMetallicRoughness" : {
                "baseColorTexture" : {
                    "index" : 1,
                    "texCoord" : 0
                },
                "metallicRoughnessTexture" : {
                    "index" : 2,
                    "texCoord" : 0
                }
            }
        },
        {
            "doubleSided" : true,
            "name" : "RiceBowl",
            "pbrMetallicRoughness" : {
                "baseColorTexture" : {
                    "index" : 3,
                    "texCoord" : 0
                },
                "metallicFactor" : 0,
                "roughnessFactor" : 0.5
            }
        },
        {
            "doubleSided" : true,
            "name" : "Sticks",
            "pbrMetallicRoughness" : {
                "baseColorFactor" : [
                    0.22658415138721466,
                    0.090720534324646,
                    0.008497032336890697,
                    1
                ],
                "metallicFactor" : 0
            }
        }
    ],
    "meshes" : [
        {
            "name" : "Cube.008",
            "primitives" : [
                {
                    "attributes" : {
                        "POSITION" : 0,
                        "NORMAL" : 1,
                        "TANGENT" : 2,
                        "TEXCOORD_0" : 3
                    },
                    "indices" : 4
                }
            ]
        },
        {
            "name" : "Cube.002",
            "primitives" : [
                {
                    "attributes" : {
                        "POSITION" : 5,
                        "NORMAL" : 6,
                        "TANGENT" : 7,
                        "TEXCOORD_0" : 8
                    },
                    "indices" : 9,
                    "material" : 0
                },
                {
                    "attributes" : {
                        "POSITION" : 10,
                        "NORMAL" : 11,
                        "TANGENT" : 12,
                        "TEXCOORD_0" : 13
                    },
                    "indices" : 14,
                    "material" : 1
                },
                {
                    "attributes" : {
                        "POSITION" : 15,
                        "NORMAL" : 16,
                        "TANGENT" : 17,
                        "TEXCOORD_0" : 18
                    },
                    "indices" : 19,
                    "material" : 2
                }
            ]
        },
        {
            "name" : "Cube.003",
            "primitives" : [
                {
                    "attributes" : {
                        "POSITION" : 20,
                        "NORMAL" : 21,
                        "TANGENT" : 22,
                        "TEXCOORD_0" : 23
                    },
                    "indices" : 24,
                    "material" : 0
                }
            ]
        },
        {
            "name" : "Cube.007",
            "primitives" : [
                {
                    "attributes" : {
                        "POSITION" : 25,
                        "NORMAL" : 26,
                        "TANGENT" : 27,
                        "TEXCOORD_0" : 28
                    },
                    "indices" : 29
                }
            ]
        }
    ],
    "textures" : [
        {
            "sampler" : 0,
            "source" : 0
        },
        {
            "sampler" : 0,
            "source" : 1
        },
        {
            "sampler" : 0,
            "source" : 2
        },
        {
            "sampler" : 0,
            "source" : 3
        }
    ],
    "images" : [
        {
            "mimeType" : "image/png",
            "name" : "shippingContainerNormal",
            "uri" : "textures/shippingContainerNormal.png"
        },
        {
            "mimeType" : "image/png",
            "name" : "shippingContainerAlbedo",
            "uri" : "textures/shippingContainerAlbedo.png"
        },
        {
            "mimeType" : "image/png",
            "name" : "shippingContainerMetallic-shippingContainerRoughness",
            "uri" : "textures/shippingContainerMetallic-shippingContainerRoughness.png"
        },
        {
            "mimeType" : "image/png",
            "name" : "bowlAlbedo",
            "uri" : "textures/bowlAlbedo.png"
        }
    ],
    "accessors" : [
        {
            "bufferView" : 0,
            "componentType" : 5126,
            "count" : 205,
            "max" : [
                2.954517364501953,
                0.9923715591430664,
                0.9734687805175781
            ],
            "min" : [
                -3.045482635498047,
                -1.0076284408569336,
                -1.0265312194824219
            ],
            "type" : "VEC3"
        },
        {
            "bufferView" : 1,
            "componentType" : 5126,
            "count" : 205,
            "type" : "VEC3"
        },
        {
            "bufferView" : 2,
            "componentType" : 5126,
            "count" : 205,
            "type" : "VEC4"
        },
        {
            "bufferView" : 3,
            "componentType" : 5126,
            "count" : 205,
            "type" : "VEC2"
        },
        {
            "bufferView" : 4,
            "componentType" : 5123,
            "count" : 276,
            "type" : "SCALAR"
        },
        {
            "bufferView" : 5,
            "componentType" : 5126,
            "count" : 113658,
            "max" : [
                2.982952117919922,
                0.9930038452148438,
                0.9651832580566406
            ],
            "min" : [
                -3.132051467895508,
                -1.064497947692871,
                -1.1317520141601562
            ],
            "type" : "VEC3"
        },
        {
            "bufferView" : 6,
            "componentType" : 5126,
            "count" : 113658,
            "type" : "VEC3"
        },
        {
            "bufferView" : 7,
            "componentType" : 5126,
            "count" : 113658,
            "type" : "VEC4"
        },
        {
            "bufferView" : 8,
            "componentType" : 5126,
            "count" : 113658,
            "type" : "VEC2"
        },
        {
            "bufferView" : 9,
            "componentType" : 5125,
            "count" : 656640,
            "type" : "SCALAR"
        },
        {
            "bufferView" : 10,
            "componentType" : 5126,
            "count" : 125952,
            "max" : [
                2.929638147354126,
                -0.2625211775302887,
                0.9424245953559875
            ],
            "min" : [
                1.3543987274169922,
                -1.0699489116668701,
                -1.08370840549469
            ],
            "type" : "VEC3"
        },
        {
            "bufferView" : 11,
            "componentType" : 5126,
            "count" : 125952,
            "type" : "VEC3"
        },
        {
            "bufferView" : 12,
            "componentType" : 5126,
            "count" : 125952,
            "type" : "VEC4"
        },
        {
            "bufferView" : 13,
            "componentType" : 5126,
            "count" : 125952,
            "type" : "VEC2"
        },
        {
            "bufferView" : 14,
            "componentType" : 5125,
            "count" : 125952,
            "type" : "SCALAR"
        },
        {
            "bufferView" : 15,
            "componentType" : 5126,
            "count" : 288,
            "max" : [
                0.05857209861278534,
                -1.018465518951416,
                -0.1948813498020172
            ],
            "min" : [
                -0.017033129930496216,
                -1.0362054109573364,
                -0.34511125087738037
            ],
            "type" : "VEC3"
        },
        {
            "bufferView" : 16,
            "componentType" : 5126,
            "count" : 288,
            "type" : "VEC3"
        },
        {
            "bufferView" : 17,
            "componentType" : 5126,
            "count" : 288,
            "type" : "VEC4"
        },
        {
            "bufferView" : 18,
            "componentType" : 5126,
            "count" : 288,
            "type" : "VEC2"
        },
        {
            "bufferView" : 19,
            "componentType" : 5123,
            "count" : 288,
            "type" : "SCALAR"
        },
        {
            "bufferView" : 20,
            "componentType" : 5126,
            "count" : 114336,
            "max" : [
                19.66991424560547,
                11.981221199035645,
                -41.034358978271484
            ],
            "min" : [
                13.554910659790039,
                9.92371940612793,
                -43.13129425048828
            ],
            "type" : "VEC3"
        },
        {
            "bufferView" : 21,
            "componentType" : 5126,
            "count" : 114336,
            "type" : "VEC3"
        },
        {
            "bufferView" : 22,
            "componentType" : 5126,
            "count" : 114336,
            "type" : "VEC4"
        },
        {
            "bufferView" : 23,
            "componentType" : 5126,
            "count" : 114336,
            "type" : "VEC2"
        },
        {
            "bufferView" : 24,
            "componentType" : 5125,
            "count" : 656640,
            "type" : "SCALAR"
        },
        {
            "bufferView" : 25,
            "componentType" : 5126,
            "count" : 24,
            "max" : [
                2.9105968475341797,
                -0.24860233068466187,
                0.9126830697059631
            ],
            "min" : [
                1.2824678421020508,
                -1.0450174808502197,
                -1.0873169898986816
            ],
            "type" : "VEC3"
        },
        {
            "bufferView" : 26,
            "componentType" : 5126,
            "count" : 24,
            "type" : "VEC3"
        },
        {
            "bufferView" : 27,
            "componentType" : 5126,
            "count" : 24,
            "type" : "VEC4"
        },
        {
            "bufferView" : 28,
            "componentType" : 5126,
            "count" : 24,
            "type" : "VEC2"
        },
        {
            "bufferView" : 29,
            "componentType" : 5123,
            "count" : 36,
            "type" : "SCALAR"
        }
    ],
    "bufferViews" : [
        {
            "buffer" : 0,
            "byteLength" : 2460,
            "byteOffset" : 0
        },
        {
            "buffer" : 0,
            "byteLength" : 2460,
            "byteOffset" : 2460
        },
        {
            "buffer" : 0,
            "byteLength" : 3280,
            "byteOffset" : 4920
        },
        {
            "buffer" : 0,
            "byteLength" : 1640,
            "byteOffset" : 8200
        },
        {
            "buffer" : 0,
            "byteLength" : 552,
            "byteOffset" : 9840
        },
        {
            "buffer" : 0,
            "byteLength" : 1363896,
            "byteOffset" : 10392
        },
        {
            "buffer" : 0,
            "byteLength" : 1363896,
            "byteOffset" : 1374288
        },
        {
            "buffer" : 0,
            "byteLength" : 1818528,
            "byteOffset" : 2738184
        },
        {
            "buffer" : 0,
            "byteLength" : 909264,
            "byteOffset" : 4556712
        },
        {
            "buffer" : 0,
            "byteLength" : 2626560,
            "byteOffset" : 5465976
        },
        {
            "buffer" : 0,
            "byteLength" : 1511424,
            "byteOffset" : 8092536
        },
        {
            "buffer" : 0,
            "byteLength" : 1511424,
            "byteOffset" : 9603960
        },
        {
            "buffer" : 0,
            "byteLength" : 2015232,
            "byteOffset" : 11115384
        },
        {
            "buffer" : 0,
            "byteLength" : 1007616,
            "byteOffset" : 13130616
        },
        {
            "buffer" : 0,
            "byteLength" : 503808,
            "byteOffset" : 14138232
        },
        {
            "buffer" : 0,
            "byteLength" : 3456,
            "byteOffset" : 14642040
        },
        {
            "buffer" : 0,
            "byteLength" : 3456,
            "byteOffset" : 14645496
        },
        {
            "buffer" : 0,
            "byteLength" : 4608,
            "byteOffset" : 14648952
        },
        {
            "buffer" : 0,
            "byteLength" : 2304,
            "byteOffset" : 14653560
        },
        {
            "buffer" : 0,
            "byteLength" : 576,
            "byteOffset" : 14655864
        },
        {
            "buffer" : 0,
            "byteLength" : 1372032,
            "byteOffset" : 14656440
        },
        {
            "buffer" : 0,
            "byteLength" : 1372032,
            "byteOffset" : 16028472
        },
        {
            "buffer" : 0,
            "byteLength" : 1829376,
            "byteOffset" : 17400504
        },
        {
            "buffer" : 0,
            "byteLength" : 914688,
            "byteOffset" : 19229880
        },
        {
            "buffer" : 0,
            "byteLength" : 2626560,
            "byteOffset" : 20144568
        },
        {
            "buffer" : 0,
            "byteLength" : 288,
            "byteOffset" : 22771128
        },
        {
            "buffer" : 0,
            "byteLength" : 288,
            "byteOffset" : 22771416
        },
        {
            "buffer" : 0,
            "byteLength" : 384,
            "byteOffset" : 22771704
        },
        {
            "buffer" : 0,
            "byteLength" : 192,
            "byteOffset" : 22772088
        },
        {
            "buffer" : 0,
            "byteLength" : 72,
            "byteOffset" : 22772280
        }
    ],
    "samplers" : [
        {
            "magFilter" : 9729,
            "minFilter" : 9986
        }
    ],
    "buffers" : [
        {
            "byteLength" : 22772352,
            "uri" : "kontener.bin"
        }
    ]
}
